<svg width="320" height="154" viewBox="0 0 320 154" fill="none" xmlns="http://www.w3.org/2000/svg">
<path d="M309.497 37.2762V83.855C309.497 88.546 309.828 91.6054 310.491 93.0331C311.154 94.4098 312.709 95.3531 315.156 95.863L319.669 96.7043V99.8402H290.682V96.6278L295.959 95.4806C297.846 95.0727 299.018 94.4863 299.477 93.7215C299.885 92.8546 300.089 90.9935 300.089 88.1381V53.7203C300.089 50.202 299.936 48.0605 299.63 47.2956C298.916 45.511 296.061 44.6187 291.064 44.6187L290.682 42.0182L309.497 37.2762ZM296.418 7.37095C296.418 5.58632 297.004 4.08214 298.177 2.85839C299.401 1.58366 300.905 0.946289 302.69 0.946289C304.423 0.946289 305.902 1.58366 307.126 2.85839C308.4 4.08214 309.038 5.58632 309.038 7.37095C309.038 9.10459 308.4 10.5833 307.126 11.807C305.902 12.9798 304.423 13.5662 302.69 13.5662C300.905 13.5662 299.401 12.9798 298.177 11.807C297.004 10.5833 296.418 9.10459 296.418 7.37095Z" fill="#FD7436"/>
<path d="M222.84 41.8654V38.3472H248.845V41.8654C244.511 41.8654 242.191 42.9617 241.885 45.1542C241.732 46.429 242.216 48.647 243.338 51.8084L256.493 87.9088L271.025 47.4488C271.994 44.8483 271 43.1402 268.042 42.3243C266.972 42.0184 265.773 41.8654 264.448 41.8654V38.3472H285.634V41.8654C282.217 41.9674 279.846 43.0382 278.521 45.0778C277.96 45.9446 277.042 48.0351 275.767 51.3495L256.952 100.682H252.134L234.007 53.5675C232.171 48.7745 230.438 45.6386 228.806 44.16C227.225 42.6303 225.237 41.8654 222.84 41.8654Z" fill="#FD7436"/>
<path d="M189.493 43.7771C182.202 43.7771 175.803 45.7147 170.296 49.5899V83.8548C170.296 88.5458 170.627 91.6051 171.29 93.0329C171.953 94.4096 173.508 95.3529 175.955 95.8628L180.468 96.7041V99.8399H151.481V96.6276L156.758 95.4803C158.645 95.0724 159.817 94.486 160.276 93.7212C160.684 92.8544 160.888 90.9933 160.888 88.1379V53.72C160.888 50.0488 160.557 47.7288 159.894 46.76C158.67 45.3833 155.993 44.6694 151.863 44.6184L151.481 42.018L170.296 37.276V44.0066C178.964 39.2646 186.383 36.8936 192.553 36.8936C200.303 36.8936 205.529 40.3608 208.232 47.2954C209.557 50.6607 210.22 54.7653 210.22 59.6093V84.0077C210.22 88.6988 210.552 91.7581 211.215 93.1858C211.928 94.5625 213.458 95.4803 215.804 95.9392L220.316 96.8571V99.8399H191.405V96.7041L196.606 95.6333C198.544 95.2254 199.717 94.6135 200.124 93.7977C200.532 92.9309 200.736 91.0698 200.736 88.2144V62.0568C200.634 49.9723 196.887 43.8791 189.493 43.7771Z" fill="#FD7436"/>
<path d="M119.893 36.6646C129.683 36.6646 135.827 40.4888 138.325 48.1372C139.447 51.6044 139.753 54.9952 139.243 58.3095H102.607C101.944 61.9808 101.613 65.3971 101.613 68.5584C101.613 79.3172 104.825 86.6596 111.25 90.5858C114.666 92.6764 118.771 93.7217 123.564 93.7217C128.561 93.7217 133.583 91.886 138.631 88.2148L140.849 90.5093L138.708 93.0333C132.895 99.101 126.011 102.16 118.057 102.211C113.315 102.211 108.93 100.784 104.902 97.9283C96.7945 92.1665 92.7408 83.4473 92.7408 71.7707C92.7408 59.4313 96.1826 50.0748 103.066 43.7011C108.267 39.163 113.876 36.8175 119.893 36.6646ZM103.372 53.3381H129.377C129.377 49.3099 128.459 46.327 126.623 44.3894C124.788 42.4009 122.442 41.4066 119.587 41.4066C115.151 41.4066 111.53 42.7323 108.726 45.3837C105.922 47.9842 104.137 50.6356 103.372 53.3381Z" fill="#FD7436"/>
<path d="M83.3333 11.4247L22.8344 83.9316L23.0639 83.7786C42.1849 93.2626 59.0369 100.019 73.6198 104.047C88.2028 108.126 99.7009 110.166 108.114 110.166C116.527 110.166 122.723 109.707 126.7 108.789C130.677 107.871 134.297 106.877 137.56 105.806V109.477C135.419 111.925 131.238 113.888 125.017 115.367C118.796 116.845 111.428 117.61 102.913 117.661C81.8546 117.763 52.3572 109.324 14.4212 92.3448L13.8858 92.8037C13.8858 96.322 13.6818 98.693 13.2739 99.9167C12.866 101.14 12.0756 102.492 10.9029 103.97C9.78112 105.398 8.37892 106.061 6.69627 105.959C5.01362 105.857 3.6624 105.398 2.64261 104.582C-0.00883603 102.237 0.271606 99.1264 3.48394 95.2512L70.1015 13.7192H28.0353C24.4661 13.7192 22.0441 15.1724 20.7693 18.0788C20.0045 19.8634 19.3671 22.7188 18.8572 26.645H14.8801V8.82422H83.7157L83.3333 11.4247Z" fill="#FD7436"/>
<path d="M282.283 144.541V136.234H284.252V144.541H282.283ZM282.283 149.07V146.617H284.252V149.07H282.283Z" fill="#7A7A7A"/>
<path d="M274.461 149.16C273.828 149.16 273.25 149.034 272.724 148.784C272.211 148.521 271.764 148.169 271.382 147.727C271.012 147.286 270.719 146.779 270.505 146.206C270.302 145.633 270.2 145.03 270.2 144.398C270.2 143.729 270.302 143.103 270.505 142.518C270.719 141.921 271.018 141.408 271.4 140.979C271.782 140.537 272.235 140.191 272.76 139.94C273.297 139.678 273.888 139.546 274.533 139.546C275.296 139.546 275.959 139.725 276.52 140.083C277.081 140.441 277.546 140.907 277.916 141.48V139.708H279.652V148.802C279.652 149.482 279.527 150.084 279.276 150.61C279.026 151.135 278.674 151.576 278.22 151.934C277.779 152.304 277.254 152.585 276.645 152.776C276.036 152.967 275.38 153.062 274.676 153.062C273.637 153.062 272.778 152.883 272.098 152.525C271.418 152.179 270.839 151.69 270.361 151.057L271.471 150.019C271.829 150.52 272.289 150.902 272.85 151.165C273.423 151.427 274.031 151.558 274.676 151.558C275.081 151.558 275.463 151.505 275.821 151.397C276.191 151.29 276.514 151.123 276.788 150.896C277.063 150.669 277.277 150.383 277.433 150.037C277.6 149.691 277.683 149.279 277.683 148.802V147.369C277.349 147.942 276.89 148.384 276.305 148.694C275.72 149.004 275.105 149.16 274.461 149.16ZM275.105 147.566C275.404 147.566 275.69 147.519 275.965 147.423C276.239 147.316 276.49 147.178 276.717 147.011C276.955 146.832 277.158 146.635 277.325 146.421C277.492 146.194 277.612 145.955 277.683 145.705V143.252C277.445 142.655 277.075 142.172 276.573 141.802C276.072 141.42 275.535 141.229 274.962 141.229C274.533 141.229 274.145 141.325 273.799 141.516C273.464 141.695 273.178 141.939 272.939 142.25C272.701 142.548 272.516 142.888 272.384 143.27C272.253 143.652 272.187 144.046 272.187 144.451C272.187 144.881 272.259 145.287 272.402 145.669C272.557 146.039 272.766 146.367 273.029 146.653C273.291 146.928 273.596 147.149 273.942 147.316C274.3 147.483 274.688 147.566 275.105 147.566Z" fill="#7A7A7A"/>
<path d="M268.522 149.07H266.553V143.825C266.553 142.942 266.41 142.303 266.123 141.909C265.837 141.504 265.425 141.301 264.888 141.301C264.602 141.301 264.309 141.354 264.011 141.462C263.724 141.569 263.456 141.724 263.205 141.927C262.955 142.118 262.728 142.351 262.525 142.625C262.334 142.888 262.185 143.18 262.077 143.503V149.07H260.108V139.708H261.898V141.587C262.256 140.955 262.776 140.459 263.456 140.101C264.136 139.731 264.888 139.546 265.711 139.546C266.272 139.546 266.732 139.648 267.09 139.851C267.46 140.054 267.746 140.334 267.949 140.692C268.164 141.038 268.313 141.444 268.397 141.909C268.48 142.363 268.522 142.846 268.522 143.359V149.07Z" fill="#7A7A7A"/>
<path d="M255.825 149.07V139.708H257.794V149.07H255.825ZM255.825 138.168V136.002H257.794V138.168H255.825Z" fill="#7A7A7A"/>
<path d="M252.569 149.07L249.579 144.756L248.022 146.224V149.07H246.053V136.002H248.022V144.29L252.336 139.725H254.466L250.85 143.646L254.681 149.07H252.569Z" fill="#7A7A7A"/>
<path d="M243.837 149.07H241.868V143.825C241.868 142.942 241.725 142.303 241.439 141.909C241.152 141.504 240.74 141.301 240.203 141.301C239.917 141.301 239.624 141.354 239.326 141.462C239.04 141.569 238.771 141.724 238.521 141.927C238.27 142.118 238.043 142.351 237.84 142.625C237.649 142.888 237.5 143.18 237.393 143.503V149.07H235.424V139.708H237.214V141.587C237.572 140.955 238.091 140.459 238.771 140.101C239.451 139.731 240.203 139.546 241.027 139.546C241.588 139.546 242.047 139.648 242.405 139.851C242.775 140.054 243.062 140.334 243.264 140.692C243.479 141.038 243.629 141.444 243.712 141.909C243.796 142.363 243.837 142.846 243.837 143.359V149.07Z" fill="#7A7A7A"/>
<path d="M231.14 149.07V139.708H233.11V149.07H231.14ZM231.14 138.168V136.002H233.11V138.168H231.14Z" fill="#7A7A7A"/>
<path d="M228.925 149.07H226.956V143.825C226.956 142.966 226.801 142.333 226.491 141.927C226.18 141.51 225.739 141.301 225.166 141.301C224.903 141.301 224.635 141.355 224.36 141.462C224.086 141.569 223.823 141.725 223.573 141.927C223.334 142.118 223.113 142.351 222.91 142.626C222.719 142.888 222.576 143.181 222.481 143.503V149.07H220.511V136.002H222.481V141.587C222.85 140.943 223.34 140.442 223.948 140.084C224.569 139.725 225.243 139.546 225.971 139.546C226.544 139.546 227.022 139.654 227.403 139.869C227.785 140.072 228.09 140.346 228.316 140.692C228.543 141.038 228.698 141.444 228.782 141.909C228.877 142.363 228.925 142.846 228.925 143.36V149.07Z" fill="#7A7A7A"/>
<path d="M219.236 148.587C218.973 148.706 218.621 148.843 218.18 148.998C217.75 149.142 217.278 149.213 216.765 149.213C216.455 149.213 216.163 149.172 215.888 149.088C215.626 149.004 215.387 148.879 215.172 148.712C214.969 148.545 214.808 148.33 214.689 148.068C214.569 147.793 214.51 147.465 214.51 147.083V141.229H213.257V139.708H214.51V136.628H216.479V139.708H218.52V141.229H216.479V146.456C216.479 146.791 216.574 147.035 216.765 147.19C216.956 147.334 217.189 147.405 217.463 147.405C217.738 147.405 218.001 147.357 218.251 147.262C218.502 147.167 218.687 147.089 218.806 147.029L219.236 148.587Z" fill="#7A7A7A"/>
<path d="M203.9 149.07V142.321H202.647V140.799H203.9V139.564C203.9 138.407 204.168 137.494 204.705 136.825C205.242 136.157 205.97 135.823 206.889 135.823C207.271 135.823 207.647 135.876 208.017 135.984C208.387 136.079 208.733 136.217 209.055 136.396L208.626 137.864C208.459 137.756 208.25 137.667 207.999 137.595C207.761 137.523 207.528 137.488 207.301 137.488C206.836 137.488 206.478 137.661 206.227 138.007C205.988 138.353 205.869 138.854 205.869 139.51V140.799H208.25V142.321H205.869V149.07H203.9Z" fill="#7A7A7A"/>
<path d="M196.87 149.249C196.13 149.249 195.462 149.118 194.865 148.855C194.28 148.593 193.779 148.241 193.362 147.799C192.944 147.357 192.622 146.844 192.395 146.26C192.168 145.663 192.055 145.042 192.055 144.398C192.055 143.753 192.168 143.139 192.395 142.554C192.622 141.957 192.944 141.438 193.362 140.996C193.791 140.555 194.298 140.203 194.883 139.94C195.48 139.678 196.142 139.546 196.87 139.546C197.598 139.546 198.255 139.678 198.839 139.94C199.436 140.203 199.943 140.555 200.361 140.996C200.791 141.438 201.119 141.957 201.346 142.554C201.572 143.139 201.686 143.753 201.686 144.398C201.686 145.042 201.572 145.663 201.346 146.26C201.119 146.844 200.791 147.357 200.361 147.799C199.943 148.241 199.436 148.593 198.839 148.855C198.255 149.118 197.598 149.249 196.87 149.249ZM194.078 144.416C194.078 144.869 194.149 145.287 194.292 145.669C194.436 146.051 194.633 146.385 194.883 146.671C195.134 146.946 195.426 147.167 195.76 147.334C196.106 147.489 196.476 147.566 196.87 147.566C197.264 147.566 197.628 147.489 197.962 147.334C198.308 147.167 198.607 146.94 198.857 146.653C199.108 146.367 199.305 146.033 199.448 145.651C199.591 145.269 199.663 144.851 199.663 144.398C199.663 143.956 199.591 143.544 199.448 143.163C199.305 142.769 199.108 142.429 198.857 142.142C198.607 141.856 198.308 141.635 197.962 141.48C197.628 141.313 197.264 141.229 196.87 141.229C196.488 141.229 196.124 141.313 195.778 141.48C195.444 141.647 195.152 141.874 194.901 142.16C194.65 142.446 194.448 142.787 194.292 143.18C194.149 143.562 194.078 143.974 194.078 144.416Z" fill="#7A7A7A"/>
<path d="M187.192 141.408C186.428 141.432 185.753 141.611 185.169 141.945C184.584 142.267 184.16 142.733 183.898 143.341V149.07H181.928V139.707H183.754V141.802C184.089 141.157 184.512 140.632 185.025 140.226C185.551 139.821 186.106 139.618 186.69 139.618C186.81 139.618 186.905 139.618 186.977 139.618C187.06 139.618 187.132 139.624 187.192 139.636V141.408Z" fill="#7A7A7A"/>
<path d="M175.56 149.249C174.832 149.249 174.17 149.124 173.573 148.873C172.977 148.611 172.463 148.259 172.034 147.817C171.616 147.375 171.288 146.862 171.049 146.277C170.822 145.693 170.709 145.072 170.709 144.416C170.709 143.759 170.822 143.139 171.049 142.554C171.288 141.957 171.616 141.438 172.034 140.996C172.463 140.543 172.977 140.191 173.573 139.94C174.17 139.678 174.838 139.546 175.578 139.546C176.306 139.546 176.963 139.678 177.547 139.94C178.144 140.203 178.651 140.555 179.069 140.996C179.487 141.426 179.803 141.933 180.018 142.518C180.245 143.091 180.358 143.694 180.358 144.326C180.358 144.469 180.352 144.607 180.34 144.738C180.328 144.857 180.316 144.959 180.304 145.042H172.804C172.839 145.46 172.935 145.836 173.09 146.17C173.257 146.504 173.466 146.797 173.717 147.047C173.979 147.286 174.271 147.471 174.594 147.602C174.928 147.733 175.274 147.799 175.632 147.799C175.895 147.799 176.151 147.769 176.402 147.71C176.664 147.638 176.903 147.542 177.118 147.423C177.333 147.292 177.524 147.137 177.691 146.958C177.858 146.779 177.989 146.582 178.085 146.367L179.767 146.85C179.445 147.554 178.908 148.133 178.156 148.587C177.416 149.028 176.551 149.249 175.56 149.249ZM178.407 143.682C178.371 143.288 178.27 142.924 178.102 142.59C177.947 142.256 177.744 141.975 177.494 141.748C177.243 141.51 176.951 141.325 176.617 141.193C176.282 141.062 175.93 140.996 175.56 140.996C175.19 140.996 174.838 141.062 174.504 141.193C174.182 141.325 173.896 141.51 173.645 141.748C173.394 141.975 173.191 142.256 173.036 142.59C172.881 142.924 172.786 143.288 172.75 143.682H178.407Z" fill="#7A7A7A"/>
<path d="M168.114 139.707H169.993L166.037 149.07H164.426L162.671 144.719L160.935 149.07H159.306L155.368 139.707H157.229L160.255 147.172L161.615 143.699L159.986 139.725H161.597L162.671 142.661L163.746 139.725H165.357L163.746 143.699L165.106 147.172L168.114 139.707Z" fill="#7A7A7A"/>
<path d="M150.193 149.249C149.453 149.249 148.785 149.118 148.188 148.855C147.603 148.593 147.102 148.241 146.684 147.799C146.267 147.357 145.944 146.844 145.718 146.26C145.491 145.663 145.378 145.042 145.378 144.398C145.378 143.753 145.491 143.139 145.718 142.554C145.944 141.957 146.267 141.438 146.684 140.996C147.114 140.555 147.621 140.203 148.206 139.94C148.803 139.678 149.465 139.546 150.193 139.546C150.921 139.546 151.577 139.678 152.162 139.94C152.759 140.203 153.266 140.555 153.684 140.996C154.114 141.438 154.442 141.957 154.668 142.554C154.895 143.139 155.009 143.753 155.009 144.398C155.009 145.042 154.895 145.663 154.668 146.26C154.442 146.844 154.114 147.357 153.684 147.799C153.266 148.241 152.759 148.593 152.162 148.855C151.577 149.118 150.921 149.249 150.193 149.249ZM147.4 144.416C147.4 144.869 147.472 145.287 147.615 145.669C147.758 146.051 147.955 146.385 148.206 146.671C148.457 146.946 148.749 147.167 149.083 147.334C149.429 147.489 149.799 147.566 150.193 147.566C150.587 147.566 150.951 147.489 151.285 147.334C151.631 147.167 151.929 146.94 152.18 146.653C152.431 146.367 152.628 146.033 152.771 145.651C152.914 145.269 152.986 144.851 152.986 144.398C152.986 143.956 152.914 143.544 152.771 143.163C152.628 142.769 152.431 142.429 152.18 142.142C151.929 141.856 151.631 141.635 151.285 141.48C150.951 141.313 150.587 141.229 150.193 141.229C149.811 141.229 149.447 141.313 149.101 141.48C148.767 141.647 148.474 141.874 148.224 142.16C147.973 142.446 147.77 142.787 147.615 143.18C147.472 143.562 147.4 143.974 147.4 144.416Z" fill="#7A7A7A"/>
<path d="M140.061 149.249C139.309 149.249 138.647 149.07 138.074 148.712C137.513 148.354 137.06 147.889 136.714 147.316V152.883H134.744V139.708H136.481V141.39C136.839 140.829 137.304 140.382 137.877 140.048C138.45 139.713 139.094 139.546 139.81 139.546C140.443 139.546 141.028 139.678 141.565 139.94C142.102 140.203 142.567 140.555 142.961 140.996C143.355 141.438 143.659 141.951 143.874 142.536C144.101 143.121 144.214 143.735 144.214 144.38C144.214 145.06 144.113 145.699 143.91 146.295C143.707 146.88 143.421 147.393 143.051 147.835C142.681 148.264 142.239 148.611 141.726 148.873C141.225 149.124 140.67 149.249 140.061 149.249ZM139.435 147.566C139.84 147.566 140.216 147.477 140.562 147.298C140.908 147.119 141.201 146.88 141.44 146.582C141.678 146.283 141.863 145.943 141.994 145.561C142.138 145.179 142.209 144.786 142.209 144.38C142.209 143.95 142.132 143.544 141.977 143.163C141.833 142.781 141.63 142.446 141.368 142.16C141.105 141.874 140.795 141.647 140.437 141.48C140.079 141.313 139.697 141.229 139.291 141.229C139.041 141.229 138.778 141.277 138.504 141.372C138.229 141.468 137.967 141.599 137.716 141.766C137.477 141.933 137.268 142.13 137.089 142.357C136.91 142.572 136.785 142.81 136.714 143.073V145.526C136.833 145.812 136.988 146.08 137.179 146.331C137.37 146.582 137.585 146.797 137.823 146.976C138.062 147.155 138.319 147.298 138.593 147.405C138.868 147.513 139.148 147.566 139.435 147.566Z" fill="#7A7A7A"/>
<path d="M123.988 149.249C123.26 149.249 122.598 149.124 122.001 148.873C121.405 148.611 120.891 148.259 120.462 147.817C120.044 147.375 119.716 146.862 119.477 146.277C119.25 145.693 119.137 145.072 119.137 144.416C119.137 143.759 119.25 143.139 119.477 142.554C119.716 141.957 120.044 141.438 120.462 140.996C120.891 140.543 121.405 140.191 122.001 139.94C122.598 139.678 123.266 139.546 124.006 139.546C124.734 139.546 125.391 139.678 125.975 139.94C126.572 140.203 127.079 140.555 127.497 140.996C127.915 141.426 128.231 141.933 128.446 142.518C128.673 143.091 128.786 143.694 128.786 144.326C128.786 144.469 128.78 144.607 128.768 144.738C128.756 144.857 128.744 144.959 128.732 145.042H121.231C121.267 145.46 121.363 145.836 121.518 146.17C121.685 146.504 121.894 146.797 122.144 147.047C122.407 147.286 122.699 147.471 123.022 147.602C123.356 147.733 123.702 147.799 124.06 147.799C124.322 147.799 124.579 147.769 124.83 147.71C125.092 147.638 125.331 147.542 125.546 147.423C125.761 147.292 125.952 147.137 126.119 146.958C126.286 146.779 126.417 146.582 126.512 146.367L128.195 146.85C127.873 147.554 127.336 148.133 126.584 148.587C125.844 149.028 124.979 149.249 123.988 149.249ZM126.835 143.682C126.799 143.288 126.697 142.924 126.53 142.59C126.375 142.256 126.172 141.975 125.922 141.748C125.671 141.51 125.379 141.325 125.045 141.193C124.71 141.062 124.358 140.996 123.988 140.996C123.618 140.996 123.266 141.062 122.932 141.193C122.61 141.325 122.323 141.51 122.073 141.748C121.822 141.975 121.619 142.256 121.464 142.59C121.309 142.924 121.214 143.288 121.178 143.682H126.835Z" fill="#7A7A7A"/>
<path d="M117.494 149.07H115.525V143.825C115.525 142.966 115.37 142.333 115.06 141.927C114.749 141.51 114.308 141.301 113.735 141.301C113.472 141.301 113.204 141.355 112.929 141.462C112.655 141.569 112.392 141.725 112.142 141.927C111.903 142.118 111.682 142.351 111.479 142.626C111.288 142.888 111.145 143.181 111.05 143.503V149.07H109.081V136.002H111.05V141.587C111.42 140.943 111.909 140.442 112.518 140.084C113.138 139.725 113.813 139.546 114.541 139.546C115.113 139.546 115.591 139.654 115.973 139.869C116.355 140.072 116.659 140.346 116.886 140.692C117.112 141.038 117.268 141.444 117.351 141.909C117.447 142.363 117.494 142.846 117.494 143.36V149.07Z" fill="#7A7A7A"/>
<path d="M107.805 148.587C107.542 148.706 107.19 148.843 106.749 148.998C106.319 149.142 105.848 149.213 105.335 149.213C105.024 149.213 104.732 149.172 104.457 149.088C104.195 149.004 103.956 148.879 103.741 148.712C103.538 148.545 103.377 148.33 103.258 148.068C103.139 147.793 103.079 147.465 103.079 147.083V141.229H101.826V139.708H103.079V136.628H105.048V139.708H107.089V141.229H105.048V146.456C105.048 146.791 105.144 147.035 105.335 147.19C105.526 147.334 105.758 147.405 106.033 147.405C106.307 147.405 106.57 147.357 106.82 147.262C107.071 147.167 107.256 147.089 107.375 147.029L107.805 148.587Z" fill="#7A7A7A"/>
<path d="M94.9155 149.07L91.926 144.756L90.3685 146.224V149.07H88.3994V136.002H90.3685V144.29L94.6828 139.725H96.8131L93.197 143.646L97.0279 149.07H94.9155Z" fill="#7A7A7A"/>
<path d="M77.8268 144.38C77.8268 143.723 77.9402 143.103 78.1669 142.518C78.3937 141.933 78.7159 141.42 79.1336 140.979C79.5632 140.537 80.0764 140.191 80.6731 139.94C81.2699 139.678 81.9382 139.546 82.6781 139.546C83.6448 139.546 84.4743 139.761 85.1665 140.191C85.8706 140.609 86.3957 141.169 86.7418 141.874L84.8263 142.482C84.5996 142.088 84.2952 141.784 83.9133 141.569C83.5314 141.343 83.1078 141.229 82.6423 141.229C82.2485 141.229 81.8785 141.307 81.5324 141.462C81.1983 141.617 80.9059 141.838 80.6552 142.124C80.4046 142.399 80.2077 142.727 80.0645 143.109C79.9213 143.491 79.8497 143.914 79.8497 144.38C79.8497 144.833 79.9213 145.257 80.0645 145.651C80.2196 146.033 80.4225 146.367 80.6731 146.653C80.9357 146.94 81.2341 147.167 81.5682 147.334C81.9143 147.489 82.2783 147.566 82.6602 147.566C82.8989 147.566 83.1376 147.536 83.3763 147.477C83.615 147.405 83.8298 147.31 84.0207 147.19C84.2236 147.071 84.3967 146.934 84.5399 146.779C84.695 146.624 84.8084 146.456 84.88 146.277L86.8134 146.85C86.5031 147.554 85.984 148.133 85.256 148.587C84.528 149.028 83.6687 149.249 82.6781 149.249C81.9501 149.249 81.2878 149.118 80.691 148.855C80.0943 148.593 79.5811 148.241 79.1515 147.799C78.7338 147.346 78.4056 146.826 78.1669 146.242C77.9402 145.657 77.8268 145.036 77.8268 144.38Z" fill="#7A7A7A"/>
<path d="M71.8909 149.249C71.1509 149.249 70.4826 149.118 69.8859 148.855C69.3011 148.593 68.7998 148.241 68.3821 147.799C67.9644 147.357 67.6422 146.844 67.4154 146.26C67.1887 145.663 67.0753 145.042 67.0753 144.398C67.0753 143.753 67.1887 143.139 67.4154 142.554C67.6422 141.957 67.9644 141.438 68.3821 140.996C68.8118 140.555 69.319 140.203 69.9038 139.94C70.5005 139.678 71.1629 139.546 71.8909 139.546C72.6189 139.546 73.2752 139.678 73.86 139.94C74.4568 140.203 74.964 140.555 75.3817 140.996C75.8113 141.438 76.1395 141.957 76.3663 142.554C76.593 143.139 76.7064 143.753 76.7064 144.398C76.7064 145.042 76.593 145.663 76.3663 146.26C76.1395 146.844 75.8113 147.357 75.3817 147.799C74.964 148.241 74.4568 148.593 73.86 148.855C73.2752 149.118 72.6189 149.249 71.8909 149.249ZM69.0982 144.416C69.0982 144.869 69.1698 145.287 69.313 145.669C69.4562 146.051 69.6532 146.385 69.9038 146.671C70.1544 146.946 70.4468 147.167 70.781 147.334C71.1271 147.489 71.497 147.566 71.8909 147.566C72.2847 147.566 72.6487 147.489 72.9829 147.334C73.329 147.167 73.6273 146.94 73.8779 146.653C74.1286 146.367 74.3255 146.033 74.4687 145.651C74.6119 145.269 74.6835 144.851 74.6835 144.398C74.6835 143.956 74.6119 143.544 74.4687 143.163C74.3255 142.769 74.1286 142.429 73.8779 142.142C73.6273 141.856 73.329 141.635 72.9829 141.48C72.6487 141.313 72.2847 141.229 71.8909 141.229C71.509 141.229 71.145 141.313 70.7989 141.48C70.4647 141.647 70.1723 141.874 69.9217 142.16C69.6711 142.446 69.4682 142.787 69.313 143.18C69.1698 143.562 69.0982 143.974 69.0982 144.416Z" fill="#7A7A7A"/>
<path d="M62.3865 136.002H64.3557V146.313C64.3557 146.659 64.4452 146.934 64.6242 147.137C64.8032 147.328 65.0538 147.423 65.376 147.423C65.5073 147.423 65.6625 147.405 65.8415 147.369C66.0205 147.322 66.1876 147.262 66.3427 147.19L66.6292 148.784C66.3427 148.915 66.0026 149.016 65.6088 149.088C65.2149 149.172 64.8629 149.213 64.5526 149.213C63.8723 149.213 63.3412 149.028 62.9593 148.658C62.5774 148.288 62.3865 147.763 62.3865 147.083V136.002Z" fill="#7A7A7A"/>
<path d="M60.1532 149.07H58.184V143.825C58.184 142.942 58.0408 142.303 57.7544 141.909C57.468 141.504 57.0562 141.301 56.5192 141.301C56.2328 141.301 55.9404 141.354 55.642 141.462C55.3556 141.569 55.087 141.724 54.8364 141.927C54.5858 142.118 54.359 142.351 54.1562 142.625C53.9652 142.888 53.816 143.18 53.7086 143.503V149.07H51.7394V139.708H53.5296V141.587C53.8876 140.955 54.4068 140.459 55.087 140.101C55.7673 139.731 56.5192 139.546 57.3427 139.546C57.9036 139.546 58.363 139.648 58.7211 139.851C59.091 140.054 59.3775 140.334 59.5804 140.692C59.7952 141.038 59.9444 141.444 60.0279 141.909C60.1114 142.363 60.1532 142.846 60.1532 143.359V149.07Z" fill="#7A7A7A"/>
<path d="M44.0205 147.351C44.6888 147.351 45.2438 147.22 45.6854 146.957C46.1269 146.695 46.479 146.354 46.7416 145.937C47.016 145.507 47.207 145.024 47.3144 144.487C47.4338 143.938 47.4934 143.377 47.4934 142.804V136.359H49.5163V142.804C49.5163 143.675 49.4149 144.499 49.212 145.274C49.0091 146.038 48.6869 146.712 48.2453 147.297C47.8037 147.87 47.2309 148.324 46.5267 148.658C45.8345 148.992 44.9991 149.159 44.0205 149.159C43.0061 149.159 42.1468 148.986 41.4427 148.64C40.7505 148.282 40.1896 147.81 39.7599 147.226C39.3303 146.629 39.02 145.949 38.829 145.185C38.6381 144.421 38.5426 143.627 38.5426 142.804V136.359H40.5476V142.804C40.5476 143.389 40.6013 143.956 40.7087 144.505C40.828 145.042 41.019 145.525 41.2816 145.955C41.556 146.372 41.9141 146.712 42.3557 146.975C42.8092 147.226 43.3641 147.351 44.0205 147.351Z" fill="#7A7A7A"/>
</svg>
